# xmcd
#
# Track frame offsets:
#	182
#	32520
#	51470
#	80570
#	91707
#	108095
#	143370
#	162582
#	179945
#	208270
#	241320
#	274795
#	288702
#
# Disc length: 4063 seconds
#
# Revision: 1
# Processed by: cddbd v1.5.1PL0 Copyright (c) Steve Scherf et al.
# Submitted via: CDex 1.50Beta5
#
DISCID=bd0fdd0d
DTITLE=ウインナー ブレーゼルソリステン - セレナード第11・12番
DYEAR=1900
DGENRE=Classical
TTITLE0=モーツァルト ・ ウイーン管樂合奏団/セレナード 第11番 変ホ長調
TTITLE1=モーツァルト ・ ウイーン管樂合奏団/セレナード 第11番 変ホ長調
TTITLE2=モーツァルト ・ ウイーン管樂合奏団/セレナード 第11番 変ホ長調
TTITLE3=モーツァルト ・ ウイーン管樂合奏団/セレナード 第11番 変ホ長調
TTITLE4=モーツァルト ・ ウイーン管樂合奏団/セレナード 第11番 変ホ長調
TTITLE5=モーツァルト ・ ウイーン管樂合奏団/セレナード 第12番
TTITLE6=モーツァルト ・ ウイーン管樂合奏団/セレナード 第12番
TTITLE7=モーツァルト ・ ウイーン管樂合奏団/セレナード 第12番
TTITLE8=モーツァルト ・ ウイーン管樂合奏団/セレナード 第12番
TTITLE9=ベートーベン ・ ウイーン管樂合奏団/八重奏曲 変ホ長調
TTITLE10=ベートーベン ・ ウイーン管樂合奏団/八重奏曲 変ホ長調
TTITLE11=ベートーベン ・ ウイーン管樂合奏団/八重奏曲 変ホ長調
TTITLE12=ベートーベン ・ ウイーン管樂合奏団/八重奏曲 変ホ長調
EXTD=
EXTT0=
EXTT1=
EXTT2=
EXTT3=
EXTT4=
EXTT5=
EXTT6=
EXTT7=
EXTT8=
EXTT9=
EXTT10=
EXTT11=
EXTT12=
PLAYORDER=
